# xmcd CD database file
#
# Track frame offsets:
#	150
#	19442
#	38407
#	56522
#	69792
#	83457
#	103230
#	124875
#	143095
#	166627
#	187075
#	206317
#
# Disc length: 2946 seconds
#
# Revision: 5
# Processed by: cddbd v1.5.1PL2 Copyright (c) Steve Scherf et al.
# Submitted via: CDex 1.51
#
DISCID=960b800c
DTITLE=France D'Amour - Le silence des roses
DYEAR=1998
DGENRE=Rock
TTITLE0=Je t'aime encore
TTITLE1=Mon bonheur
TTITLE2=Un jour une fois
TTITLE3=Si c'était vrai
TTITLE4=Toute ma religion
TTITLE5=Si j'ai tort
TTITLE6=En silence
TTITLE7=Les sables mouvants
TTITLE8=Dolly...on est comme on est
TTITLE9=Je comprends
TTITLE10=J'attends
TTITLE11=Veille sur moi
EXTD=YEAR: 1998
EXTT0=
EXTT1=
EXTT2=
EXTT3=
EXTT4=
EXTT5=
EXTT6=
EXTT7=
EXTT8=
EXTT9=
EXTT10=
EXTT11=
PLAYORDER=
